<?xml version="1.0" encoding="UTF-8" standalone="no"?>
<!-- Created with Inkscape (http://www.inkscape.org/) -->

<svg
   xmlns:dc="http://purl.org/dc/elements/1.1/"
   xmlns:cc="http://creativecommons.org/ns#"
   xmlns:rdf="http://www.w3.org/1999/02/22-rdf-syntax-ns#"
   xmlns:svg="http://www.w3.org/2000/svg"
   xmlns="http://www.w3.org/2000/svg"
   xmlns:sodipodi="http://sodipodi.sourceforge.net/DTD/sodipodi-0.dtd"
   xmlns:inkscape="http://www.inkscape.org/namespaces/inkscape"
   id="svg4206"
   version="1.1"
   inkscape:version="0.91 r13725"
   width="15"
   height="15"
   viewBox="0 0 15 15"
   sodipodi:docname="download-2-xxl.svg">
  <metadata
     id="metadata4212">
    <rdf:RDF>
      <cc:Work
         rdf:about="">
        <dc:format>image/svg+xml</dc:format>
        <dc:type
           rdf:resource="http://purl.org/dc/dcmitype/StillImage" />
        <dc:title></dc:title>
      </cc:Work>
    </rdf:RDF>
  </metadata>
  <defs
     id="defs4210" />
  <sodipodi:namedview
     pagecolor="#ffffff"
     bordercolor="#666666"
     borderopacity="1"
     objecttolerance="10"
     gridtolerance="10"
     guidetolerance="10"
     inkscape:pageopacity="0"
     inkscape:pageshadow="2"
     inkscape:window-width="1360"
     inkscape:window-height="744"
     id="namedview4208"
     showgrid="false"
     inkscape:zoom="2.3710938"
     inkscape:cx="128"
     inkscape:cy="128"
     inkscape:window-x="0"
     inkscape:window-y="24"
     inkscape:window-maximized="1"
     inkscape:current-layer="svg4206" />
  <path
     style="fill:#000000"
     d="M 0.55602544,14.93083 C 0.34022447,14.83444 0.14473523,14.6279 0.0615828,14.40844 0.02147042,14.30257 -6.0599551e-4,13.49323 1.2659866e-5,12.15122 9.6069367e-4,10.09494 0.00322437,10.05507 0.13196099,9.82779 0.50242154,9.17375 1.5161086,9.20359 1.8221883,9.87759 c 0.096965,0.2135 0.1091905,0.40413 0.1103355,1.7205 l 0.00129,1.48038 5.5697727,0 5.5697725,0 0.0013,-1.48038 c 0.0011,-1.31637 0.01337,-1.507 0.110335,-1.7205 0.306106,-0.67402 1.317707,-0.70379 1.691362,-0.0498 0.131355,0.22991 0.132033,0.24384 0.117291,2.41097 -0.01427,2.09793 -0.01936,2.18579 -0.135708,2.34155 -0.06648,0.089 -0.193733,0.21622 -0.282776,0.2827 -0.161115,0.1203 -0.19489,0.12094 -7.0025652,0.13363 -5.6117995,0.0105 -6.87226926,-10e-4 -7.01655997,-0.0658 z M 7.0597118,11.16942 C 6.9606898,11.12052 5.98007,10.17796 4.8805574,9.07477 3.1314709,7.31982 2.8762758,7.04099 2.8401248,6.84538 2.7465948,6.33929 2.9261258,5.90733 3.304646,5.72771 3.5352907,5.61826 3.9927378,5.60243 4.1802322,5.69741 c 0.070434,0.0357 0.6359367,0.56968 1.2566732,1.18667 l 1.1286116,1.12181 0,-3.66467 c 0,-3.45747 0.00615,-3.67615 0.1087771,-3.86751 C 6.805882,0.22835 7.20186,0.00413 7.503584,0.00413 c 0.301724,0 0.697702,0.22422 0.82929,0.46958 0.1026263,0.19136 0.108777,0.41004 0.108777,3.86751 l 0,3.66467 1.1286119,-1.12181 C 10.190999,6.26709 10.756503,5.73309 10.826936,5.69741 c 0.187495,-0.095 0.644942,-0.0791 0.875586,0.0303 0.378521,0.17962 0.558051,0.61158 0.464522,1.11767 -0.03615,0.19561 -0.291445,0.47454 -2.041455,2.23041 -1.1000751,1.10376 -2.0846819,2.04696 -2.1880153,2.09599 -0.2388899,0.11336 -0.645573,0.11227 -0.8778619,-0.002 z"
     id="path4216"
     inkscape:connector-curvature="0" />
</svg>
