<?xml version="1.0" encoding="UTF-8" standalone="no"?>
<svg
   xmlns:dc="http://purl.org/dc/elements/1.1/"
   xmlns:cc="http://creativecommons.org/ns#"
   xmlns:rdf="http://www.w3.org/1999/02/22-rdf-syntax-ns#"
   xmlns:svg="http://www.w3.org/2000/svg"
   xmlns="http://www.w3.org/2000/svg"
   xmlns:sodipodi="http://sodipodi.sourceforge.net/DTD/sodipodi-0.dtd"
   xmlns:inkscape="http://www.inkscape.org/namespaces/inkscape"
   viewBox="0 0 23.989 30"
   enable-background="new 0 0 50 50"
   id="svg4268"
   version="1.1"
   inkscape:version="0.91 r13725"
   sodipodi:docname="pointer.svg"
   width="23.989"
   height="30">
  <metadata
     id="metadata4276">
    <rdf:RDF>
      <cc:Work
         rdf:about="">
        <dc:format>image/svg+xml</dc:format>
        <dc:type
           rdf:resource="http://purl.org/dc/dcmitype/StillImage" />
        <dc:title></dc:title>
      </cc:Work>
    </rdf:RDF>
  </metadata>
  <defs
     id="defs4274">
    <clipPath
       clipPathUnits="userSpaceOnUse"
       id="clipPath4280">
      <rect
         style="opacity:1;fill:#000000;fill-opacity:1;stroke:none;stroke-width:4;stroke-miterlimit:4;stroke-dasharray:none;stroke-dashoffset:0;stroke-opacity:1"
         id="rect4282"
         width="27.831827"
         height="31.862404"
         x="11.188325"
         y="6.7755384" />
    </clipPath>
  </defs>
  <sodipodi:namedview
     pagecolor="#ffffff"
     bordercolor="#666666"
     borderopacity="1"
     objecttolerance="10"
     gridtolerance="10"
     guidetolerance="10"
     inkscape:pageopacity="0"
     inkscape:pageshadow="2"
     inkscape:window-width="2560"
     inkscape:window-height="1576"
     id="namedview4272"
     showgrid="false"
     inkscape:zoom="20.350533"
     inkscape:cx="25.438969"
     inkscape:cy="21.840866"
     inkscape:window-x="0"
     inkscape:window-y="24"
     inkscape:window-maximized="1"
     inkscape:current-layer="svg4268" />
  <path
     d="m 33,38 -12,0 c -0.6,0 -1,-0.4 -1,-1 0,-1.5 -0.7,-2.4 -1.8,-3.8 -0.6,-0.7 -1.3,-1.6 -2,-2.7 -1.9,-3 -3.6,-6.6 -4,-7.9 -0.4,-1.3 -0.1,-2.2 0.3,-2.7 0.4,-0.6 1.2,-0.9 2.1,-0.9 1.2,0 2.4,1 3.5,2.3 l 0,-10.3 c 0,-1.7 1.3,-3 3,-3 1.7,0 3,1.3 3,3 l 0,4.2 c 0.3,-0.1 0.6,-0.2 1,-0.2 1.1,0 2,0.6 2.5,1.4 C 28,16.1 28.5,16 29,16 c 1.4,0 2.5,0.9 2.9,2.2 0.3,-0.1 0.7,-0.2 1.1,-0.2 1.7,0 3,1.3 3,3 l 0,3 c 0,2.6 -0.5,4.7 -1,6.7 -0.5,2 -1,3.9 -1,6.3 0,0.6 -0.4,1 -1,1 z M 21.9,36 32,36 c 0.1,-2.2 0.6,-4 1,-5.8 0.5,-2 1,-3.9 1,-6.2 l 0,-3 c 0,-0.6 -0.4,-1 -1,-1 -0.6,0 -1,0.4 -1,1 l 0,1 c 0,0.6 -0.4,1 -1,1 -0.6,0 -1,-0.4 -1,-1 l 0,-3 c 0,-0.6 -0.4,-1 -1,-1 -0.6,0 -1,0.4 -1,1 l 0,2 c 0,0.6 -0.4,1 -1,1 -0.6,0 -1,-0.4 -1,-1 l 0,-3 c 0,-0.6 -0.4,-1 -1,-1 -0.6,0 -1,0.4 -1,1 l 0,2 c 0,0.6 -0.4,1 -1,1 -0.6,0 -1,-0.4 -1,-1 l 0,-9 c 0,-0.6 -0.4,-1 -1,-1 -0.6,0 -1,0.4 -1,1 l 0,15 c 0,0.6 -0.4,1 -1,1 -0.6,0 -1,-0.4 -1,-1 l 0,-0.8 C 17.1,22.9 15.2,21 14.5,21 c -0.2,0 -0.4,0 -0.5,0.1 -0.1,0.1 -0.1,0.4 0,0.9 0.3,1.1 1.8,4.3 3.8,7.5 0.6,1 1.2,1.7 1.8,2.5 1.1,1.2 2.1,2.3 2.3,4 z"
     id="path4270"
     clip-path="url(#clipPath4280)"
     inkscape:connector-curvature="0"
     transform="translate(-12.011111,-8)" />
</svg>
