<?xml version="1.0" encoding="UTF-8" standalone="no"?>
<!-- Created with Inkscape (http://www.inkscape.org/) -->

<svg
   xmlns:dc="http://purl.org/dc/elements/1.1/"
   xmlns:cc="http://creativecommons.org/ns#"
   xmlns:rdf="http://www.w3.org/1999/02/22-rdf-syntax-ns#"
   xmlns:svg="http://www.w3.org/2000/svg"
   xmlns="http://www.w3.org/2000/svg"
   xmlns:sodipodi="http://sodipodi.sourceforge.net/DTD/sodipodi-0.dtd"
   xmlns:inkscape="http://www.inkscape.org/namespaces/inkscape"
   width="68.728996"
   height="60"
   viewBox="0 0 68.728996 60.000001"
   id="svg2"
   version="1.1"
   inkscape:version="0.91 r13725"
   sodipodi:docname="spinner.svg"
   inkscape:export-filename="/home/daniel/Documents/cnh/CCDE/img/ss1.png"
   inkscape:export-xdpi="90"
   inkscape:export-ydpi="90">
  <defs
     id="defs4">
    <clipPath
       clipPathUnits="userSpaceOnUse"
       id="clipPath4230">
      <rect
         style="opacity:1;fill:#000000;fill-opacity:1;stroke:none;stroke-width:5;stroke-miterlimit:4;stroke-dasharray:none;stroke-dashoffset:0;stroke-opacity:1"
         id="rect4232"
         width="1338.6251"
         height="654.65613"
         x="-162.19858"
         y="-1380.1527"
         transform="scale(1,-1)" />
    </clipPath>
    <clipPath
       clipPathUnits="userSpaceOnUse"
       id="clipPath4230-5">
      <rect
         style="opacity:1;fill:#000000;fill-opacity:1;stroke:none;stroke-width:5;stroke-miterlimit:4;stroke-dasharray:none;stroke-dashoffset:0;stroke-opacity:1"
         id="rect4232-6"
         width="1338.6251"
         height="654.65613"
         x="-162.19858"
         y="-1380.1527"
         transform="scale(1,-1)" />
    </clipPath>
  </defs>
  <sodipodi:namedview
     id="base"
     pagecolor="#ffffff"
     bordercolor="#666666"
     borderopacity="1.0"
     inkscape:pageopacity="0.0"
     inkscape:pageshadow="2"
     inkscape:zoom="7.9195959"
     inkscape:cx="3.4115802"
     inkscape:cy="32.775646"
     inkscape:document-units="px"
     inkscape:current-layer="layer1"
     showgrid="false"
     units="px"
     inkscape:window-width="1360"
     inkscape:window-height="744"
     inkscape:window-x="0"
     inkscape:window-y="24"
     inkscape:window-maximized="1" />
  <metadata
     id="metadata7">
    <rdf:RDF>
      <cc:Work
         rdf:about="">
        <dc:format>image/svg+xml</dc:format>
        <dc:type
           rdf:resource="http://purl.org/dc/dcmitype/StillImage" />
        <dc:title></dc:title>
      </cc:Work>
    </rdf:RDF>
  </metadata>
  <g
     inkscape:label="Layer 1"
     inkscape:groupmode="layer"
     id="layer1"
     transform="translate(0,-992.3622)">
    <g
       id="g4271"
       transform="matrix(2,0,0,2,-5.9999999,-1042.3621)"
       inkscape:export-xdpi="90"
       inkscape:export-ydpi="90">
      <circle
         r="13.120146"
         cy="1032.3622"
         cx="20"
         id="path4155"
         style="opacity:1;fill:none;fill-opacity:1;stroke:#000000;stroke-width:3.75970888;stroke-miterlimit:4;stroke-dasharray:none;stroke-dashoffset:0;stroke-opacity:1" />
      <rect
         ry="0"
         y="1029.8622"
         x="4.4769773"
         height="5"
         width="5"
         id="rect4157"
         style="opacity:1;fill:#ffffff;fill-opacity:1;stroke:none;stroke-width:5;stroke-miterlimit:4;stroke-dasharray:none;stroke-dashoffset:0;stroke-opacity:1" />
      <rect
         ry="0"
         y="1029.8622"
         x="30.119923"
         height="5"
         width="5"
         id="rect4157-7"
         style="opacity:1;fill:#ffffff;fill-opacity:1;stroke:none;stroke-width:5;stroke-miterlimit:4;stroke-dasharray:none;stroke-dashoffset:0;stroke-opacity:1" />
      <path
         style="fill:currentColor"
         inkscape:connector-curvature="0"
         id="path3005"
         d="m 1024,448 q 0,-26 -19,-45 L 557,-45 q -19,-19 -45,-19 -26,0 -45,19 L 19,403 q -19,19 -19,45 0,26 19,45 19,19 45,19 l 896,0 q 26,0 45,-19 19,-19 19,-45 z m 0,384 q 0,-26 -19,-45 -19,-19 -45,-19 l -896,0 q -26,0 -45,19 -19,19 -19,45 0,26 19,45 l 448,448 q 19,19 45,19 26,0 45,-19 l 448,-448 q 19,-19 19,-45 z"
         clip-path="url(#clipPath4230)"
         transform="matrix(0.00913784,0,0,-0.00913784,3,1043.7761)" />
      <path
         style="fill:currentColor"
         inkscape:connector-curvature="0"
         id="path3005-2"
         d="m 1024,448 q 0,-26 -19,-45 L 557,-45 q -19,-19 -45,-19 -26,0 -45,19 L 19,403 q -19,19 -19,45 0,26 19,45 19,19 45,19 l 896,0 q 26,0 45,-19 19,-19 19,-45 z m 0,384 q 0,-26 -19,-45 -19,-19 -45,-19 l -896,0 q -26,0 -45,19 -19,19 -19,45 0,26 19,45 l 448,448 q 19,19 45,19 26,0 45,-19 l 448,-448 q 19,-19 19,-45 z"
         clip-path="url(#clipPath4230-5)"
         transform="matrix(-0.00913782,1.9281573e-5,1.9281573e-5,0.00913782,37.348491,1021.0093)" />
    </g>
  </g>
</svg>
